<svg xmlns="http://www.w3.org/2000/svg" viewBox="0 0 512 512"><title>Icon</title><path d="M389.27,173.16a37.74,37.74,0,0,0-11.79-23.84,7.84,7.84,0,0,1-1.91-8.71h0a7.83,7.83,0,0,1,6.27-4.79l2.15-.27a7.81,7.81,0,0,1,7.88,4.09,37.88,37.88,0,1,0-3.3-26.65,7.88,7.88,0,0,1-6.64,6l-2.12.27a7.83,7.83,0,0,1-7.27-3.12l-.18-.24a7.84,7.84,0,0,1-.27-8.91,37.86,37.86,0,1,0-21.6,16,7.85,7.85,0,0,1,8.45,2.87l.38.52a7.83,7.83,0,0,1,.94,7.64l-.12.29a7.85,7.85,0,0,1-7.49,4.84,37.88,37.88,0,1,0,36.62,34.07Z" fill="#cf9b3a"/><path d="M285.4,163q-4.64-9.24-17.67-14.45l.16-1a24.21,24.21,0,0,0,17.5-7.24q7.31-7.2,9.38-19.94,3.05-18.77-9.22-29.61a44.57,44.57,0,0,0-9.83-6.39L279.21,63l-24.87-4L251.46,76.6C248.78,76,246,75.51,243,75l-3.59-.58L242.29,57l-24.87-4-2.84,17.48-15.81-2.57-11.64-1.89-4,24.71,11.64,1.89-15.08,92.8L168,183.45l-4,24.71,11.64,1.89h0l15.81,2.57-2.84,17.48,24.87,4,2.84-17.48,12.05,2-2.84,17.48,24.87,4,3.43-21.08a47.81,47.81,0,0,0,15-5.05q15.83-8.61,19-28.07Q290,172.24,285.4,163ZM224.91,97.45,240.77,100q12.94,2.1,18.35,6.63t4.08,12.7q-1.42,8.76-7.54,11.66t-18.37.91l-17.51-2.85Zm23.76,94q-6.71,3.8-19.16,1.78l-19.65-3.19,6-37.07,18.68,3q25.29,4.11,22.42,21.82Q255.38,187.68,248.67,191.48Z" fill="#cf9b3a"/><polygon points="163.92 113.76 126.22 152.99 73.59 139.21 95.83 45.13 163.92 113.76" fill="#cf9b3a"/><polygon points="76.43 149.29 129.24 163.71 166.76 123.85 144.51 217.92 76.43 149.29" fill="#cf9b3a"/><rect x="69.42" y="179.22" width="375.05" height="287.65" rx="19.72" ry="19.72" fill="#fff" stroke="#12263a" stroke-linecap="round" stroke-linejoin="round" stroke-width="10"/><rect x="339.92" y="283.83" width="123.35" height="78.42" rx="12.61" ry="12.61" fill="#f3f5f6" stroke="#12263a" stroke-linecap="round" stroke-linejoin="round" stroke-width="10"/><circle cx="381.82" cy="323.04" r="23.26" fill="#cf9b3a"/></svg>