<svg xmlns="http://www.w3.org/2000/svg" viewBox="0 0 512 512"><g data-name="10. Dapp (Decentralized Application)"><path fill="#12263A" d="M93 328.67a8 8 0 0 0 8-8V319.5a8 8 0 0 0-16 0v1.17A8 8 0 0 0 93 328.67zM141 143h-9a8 8 0 0 0 0 16h9a8 8 0 0 0 0-16zM181 143h-9a8 8 0 0 0 0 16h9a8 8 0 0 0 0-16zM221 143h-9a8 8 0 0 0 0 16h9a8 8 0 0 0 0-16z"/><path fill="#12263A" d="M512,256a22,22,0,0,0-17.48-21.53L471.26,94.88a22.37,22.37,0,0,0,4.3-3.32,22,22,0,0,0-31.12-31.12,22.24,22.24,0,0,0-3.76,5L277.34,44.65a22,22,0,0,0-42.68,0L71.32,65.47a22.24,22.24,0,0,0-3.76-5A22,22,0,0,0,36.44,91.56a22.37,22.37,0,0,0,4.3,3.32L17.48,234.47a22,22,0,0,0,0,43.06L40.74,417.12a22.37,22.37,0,0,0-4.3,3.32,22,22,0,0,0,31.12,31.12,22.24,22.24,0,0,0,3.76-5l163.34,20.82a22,22,0,0,0,42.68,0l163.34-20.82a22.24,22.24,0,0,0,3.76,5,22,22,0,0,0,31.12-31.12,22.37,22.37,0,0,0-4.3-3.32l23.26-139.59A22,22,0,0,0,512,256ZM236.69,451.47,73.32,430.65a21.28,21.28,0,0,0-1.18-3.48l31.23-31.23A31.77,31.77,0,0,0,117,399H248v42.51A22.18,22.18,0,0,0,236.69,451.47ZM275.31,60.53,438.68,81.35a21.28,21.28,0,0,0,1.18,3.48l-31.23,31.23A31.77,31.77,0,0,0,395,113H264V70.49A22.18,22.18,0,0,0,275.31,60.53ZM469.51,248H427V145a31.81,31.81,0,0,0-6-18.66l30.2-30.2a21.47,21.47,0,0,0,4.31,1.39l23.26,139.58A22.14,22.14,0,0,0,469.51,248ZM248,70.49V113H117a31.77,31.77,0,0,0-13.63,3.06L72.14,84.83a21.28,21.28,0,0,0,1.18-3.48L236.69,60.53A22.18,22.18,0,0,0,248,70.49ZM60.83,96.14,91,126.34A31.81,31.81,0,0,0,85,145V248H42.49a22.14,22.14,0,0,0-9.23-10.89L56.52,97.53A21.47,21.47,0,0,0,60.83,96.14ZM42.49,264H85v28.5a8,8,0,0,0,16,0V187H376a8,8,0,0,0,0-16H101V145a16,16,0,0,1,5.52-12.06,8.19,8.19,0,0,0,1.19-.94,15.9,15.9,0,0,1,9.29-3H395a15.9,15.9,0,0,1,9.29,3,8.19,8.19,0,0,0,1.19.94A16,16,0,0,1,411,145V367a16,16,0,0,1-5.52,12.06,8.19,8.19,0,0,0-1.19.94,15.9,15.9,0,0,1-9.29,3H117a15.9,15.9,0,0,1-9.29-3,8.19,8.19,0,0,0-1.19-.94A16,16,0,0,1,101,367V353a8,8,0,0,0-16,0v14a31.81,31.81,0,0,0,6,18.66l-30.2,30.2a21.47,21.47,0,0,0-4.31-1.39L33.26,274.89A22.14,22.14,0,0,0,42.49,264ZM264,441.51V399H395a31.77,31.77,0,0,0,13.63-3.06l31.23,31.23a21.28,21.28,0,0,0-1.18,3.48L275.31,451.47A22.18,22.18,0,0,0,264,441.51Zm187.17-25.65L421,385.66A31.81,31.81,0,0,0,427,367V264h42.51a22.14,22.14,0,0,0,9.23,10.89L455.48,414.47A21.47,21.47,0,0,0,451.17,415.86ZM490,262a6,6,0,1,1,6-6A6,6,0,0,1,490,262ZM455.76,71.76a6,6,0,1,1,0,8.48h0a6,6,0,0,1,0-8.48ZM256,44a6,6,0,1,1-6,6A6,6,0,0,1,256,44ZM47.76,71.76a6,6,0,0,1,8.49,8.48h0a6,6,0,1,1-8.48-8.48ZM22,250a6,6,0,1,1-6,6A6,6,0,0,1,22,250ZM56.24,440.24a6,6,0,1,1,0-8.48h0a6,6,0,0,1,0,8.48ZM256,468a6,6,0,1,1,6-6A6,6,0,0,1,256,468Zm208.24-27.76a6,6,0,0,1-8.49-8.48h0a6,6,0,1,1,8.48,8.48Z"/></g></svg>