<svg xmlns="http://www.w3.org/2000/svg" viewBox="0 0 512 512"><title>Icon</title><polygon points="90 81 256 37 421 81 474 258 421 435 256 472 90 431 35 258 90 81" fill="none" stroke="#12263a" stroke-linecap="round" stroke-linejoin="round" stroke-width="10"/><line x1="421" y1="81" x2="90" y2="431" fill="none" stroke="#12263a" stroke-linecap="round" stroke-linejoin="round" stroke-width="10"/><line x1="493.59" y1="256" x2="18.41" y2="256" fill="none" stroke="#12263a" stroke-linecap="round" stroke-linejoin="round" stroke-width="10"/><line x1="421" y1="435" x2="90" y2="81" fill="none" stroke="#12263a" stroke-linecap="round" stroke-linejoin="round" stroke-width="10"/><line x1="256" y1="40" x2="256" y2="472" fill="none" stroke="#12263a" stroke-linecap="round" stroke-linejoin="round" stroke-width="10"/><rect x="115.65" y="136" width="280.35" height="240" rx="14.76" ry="14.76" fill="#fff" stroke="#12263a" stroke-linecap="round" stroke-linejoin="round" stroke-width="10"/><path d="M381.24,136H130.42a14.76,14.76,0,0,0-14.76,14.76v47.84H396V150.76A14.76,14.76,0,0,0,381.24,136Z" fill="#f3f5f6" stroke="#12263a" stroke-linecap="round" stroke-linejoin="round" stroke-width="10"/><circle cx="145.98" cy="167.87" r="11.83" fill="#cf9b3a"/><circle cx="178.67" cy="167.87" r="11.83" fill="#cf9b3a"/><circle cx="211.37" cy="167.87" r="11.83" fill="#cf9b3a"/><circle cx="256" cy="40" r="29" fill="#cf9b3a"/><circle cx="256" cy="472" r="29" fill="#cf9b3a"/><circle cx="90.5" cy="81" r="29" fill="#cf9b3a"/><circle cx="90.5" cy="431" r="29" fill="#cf9b3a"/><circle cx="421.5" cy="81" r="29" fill="#cf9b3a"/><circle cx="421.5" cy="431" r="29" fill="#cf9b3a"/><circle cx="474" cy="258" r="29" fill="#cf9b3a"/><circle cx="38" cy="258" r="29" fill="#cf9b3a"/></svg>