<svg xmlns="http://www.w3.org/2000/svg" viewBox="0 0 512 512"><title>Icon</title><circle cx="155.61" cy="373.07" r="102.23" fill="#f3f5f6" stroke="#12263a" stroke-linecap="round" stroke-linejoin="round" stroke-width="10"/><circle cx="155.61" cy="373.07" r="79.25" fill="#fff"/><line x1="155.61" y1="270.84" x2="155.61" y2="278.19" fill="#fff" stroke="#12263a" stroke-linecap="round" stroke-linejoin="round" stroke-width="10"/><line x1="155.61" y1="467.94" x2="155.61" y2="475.3" fill="#fff" stroke="#12263a" stroke-linecap="round" stroke-linejoin="round" stroke-width="10"/><line x1="257.84" y1="373.07" x2="250.48" y2="373.07" fill="#fff" stroke="#12263a" stroke-linecap="round" stroke-linejoin="round" stroke-width="10"/><line x1="60.73" y1="373.07" x2="53.38" y2="373.07" fill="#fff" stroke="#12263a" stroke-linecap="round" stroke-linejoin="round" stroke-width="10"/><line x1="227.9" y1="300.78" x2="222.69" y2="305.98" fill="#fff" stroke="#12263a" stroke-linecap="round" stroke-linejoin="round" stroke-width="10"/><line x1="88.52" y1="440.15" x2="83.32" y2="445.36" fill="#fff" stroke="#12263a" stroke-linecap="round" stroke-linejoin="round" stroke-width="10"/><line x1="227.9" y1="445.36" x2="222.69" y2="440.15" fill="#fff" stroke="#12263a" stroke-linecap="round" stroke-linejoin="round" stroke-width="10"/><line x1="88.52" y1="305.98" x2="83.32" y2="300.78" fill="#fff" stroke="#12263a" stroke-linecap="round" stroke-linejoin="round" stroke-width="10"/><polygon points="189.07 369.33 155.61 388.97 122.14 369.33 155.6 309.06 189.07 369.33" fill="#cf9b3a"/><polygon points="122.14 376.81 155.61 396.92 189.07 376.8 155.61 437.08 122.14 376.81" fill="#cf9b3a"/><circle cx="356.39" cy="258.9" r="102.23" fill="#f3f5f6" stroke="#12263a" stroke-linecap="round" stroke-linejoin="round" stroke-width="10"/><circle cx="356.39" cy="258.9" r="79.25" fill="#fff"/><line x1="356.39" y1="156.67" x2="356.39" y2="164.02" fill="#fff" stroke="#12263a" stroke-linecap="round" stroke-linejoin="round" stroke-width="10"/><line x1="356.39" y1="353.77" x2="356.39" y2="361.13" fill="#fff" stroke="#12263a" stroke-linecap="round" stroke-linejoin="round" stroke-width="10"/><line x1="458.62" y1="258.9" x2="451.27" y2="258.9" fill="#fff" stroke="#12263a" stroke-linecap="round" stroke-linejoin="round" stroke-width="10"/><line x1="261.52" y1="258.9" x2="254.16" y2="258.9" fill="#fff" stroke="#12263a" stroke-linecap="round" stroke-linejoin="round" stroke-width="10"/><line x1="428.68" y1="186.61" x2="423.48" y2="191.81" fill="#fff" stroke="#12263a" stroke-linecap="round" stroke-linejoin="round" stroke-width="10"/><line x1="289.31" y1="325.99" x2="284.1" y2="331.19" fill="#fff" stroke="#12263a" stroke-linecap="round" stroke-linejoin="round" stroke-width="10"/><line x1="428.68" y1="331.19" x2="423.48" y2="325.99" fill="#fff" stroke="#12263a" stroke-linecap="round" stroke-linejoin="round" stroke-width="10"/><line x1="289.31" y1="191.81" x2="284.1" y2="186.61" fill="#fff" stroke="#12263a" stroke-linecap="round" stroke-linejoin="round" stroke-width="10"/><path d="M389.56,252.19a26.92,26.92,0,0,0-17.92,6.23,5.59,5.59,0,0,1-6.33.58h0a5.59,5.59,0,0,1-2.83-4.86v-1.55a5.57,5.57,0,0,1,3.6-5.22,27,27,0,1,0-19.15,0,5.62,5.62,0,0,1,3.66,5.23v1.53a5.59,5.59,0,0,1-2.85,4.87l-.19.11a5.59,5.59,0,0,1-6.33-.6,27,27,0,1,0,9.37,16.7,5.6,5.6,0,0,1,2.78-5.72l.4-.23a5.59,5.59,0,0,1,5.49,0l.19.11a5.6,5.6,0,0,1,2.76,5.73,27,27,0,1,0,27.35-22.89Z" fill="#cf9b3a"/><circle cx="155.61" cy="138.93" r="102.23" fill="#f3f5f6" stroke="#12263a" stroke-linecap="round" stroke-linejoin="round" stroke-width="10"/><circle cx="155.61" cy="138.93" r="79.25" fill="#fff"/><path d="M188.22,143.82q-3.71-5.13-12.1-7v-.6a14.82,14.82,0,0,0,9.87-6.1q3.71-5.07,3.71-13,0-11.65-8.48-17a27.29,27.29,0,0,0-6.57-2.89V84H159.22v11c-1.68-.08-3.42-.12-5.25-.12h-2.23V84H136.32V94.82h-17v15.33h7.22v57.57h-7.22V183h17v10.84h15.43V183h7.48v10.84h15.43V180.82a29.27,29.27,0,0,0,8.56-4.53q8.72-6.76,8.72-18.83Q191.93,149,188.22,143.82Zm-43-33.67h9.84q8,0,11.74,2.2t3.71,7.27q0,5.43-3.41,7.79t-11,2.35H145.22Zm23.6,54.5q-3.68,3-11.41,3H145.22v-23h11.59q15.69,0,15.69,11Q172.5,161.69,168.81,164.64Z" fill="#cf9b3a"/><line x1="155.61" y1="36.7" x2="155.61" y2="44.06" fill="#fff" stroke="#12263a" stroke-linecap="round" stroke-linejoin="round" stroke-width="10"/><line x1="155.61" y1="233.81" x2="155.61" y2="241.16" fill="#fff" stroke="#12263a" stroke-linecap="round" stroke-linejoin="round" stroke-width="10"/><line x1="257.84" y1="138.93" x2="250.48" y2="138.93" fill="#fff" stroke="#12263a" stroke-linecap="round" stroke-linejoin="round" stroke-width="10"/><line x1="60.73" y1="138.93" x2="53.38" y2="138.93" fill="#fff" stroke="#12263a" stroke-linecap="round" stroke-linejoin="round" stroke-width="10"/><line x1="227.9" y1="66.64" x2="222.69" y2="71.85" fill="#fff" stroke="#12263a" stroke-linecap="round" stroke-linejoin="round" stroke-width="10"/><line x1="88.52" y1="206.02" x2="83.32" y2="211.22" fill="#fff" stroke="#12263a" stroke-linecap="round" stroke-linejoin="round" stroke-width="10"/><line x1="227.9" y1="211.22" x2="222.69" y2="206.02" fill="#fff" stroke="#12263a" stroke-linecap="round" stroke-linejoin="round" stroke-width="10"/><line x1="88.52" y1="71.85" x2="83.32" y2="66.64" fill="#fff" stroke="#12263a" stroke-linecap="round" stroke-linejoin="round" stroke-width="10"/></svg>