<?xml version="1.0" encoding="UTF-8"?><svg class="service-icon" xmlns="http://www.w3.org/2000/svg" xmlns:xlink="http://www.w3.org/1999/xlink" version="1.1" id="Layer_1" x="0px" y="0px" viewBox="0 0 128 128" xml:space="preserve"><path fill="#12263A" d="M24.821 22.135c2.865-1.5 3.825-5.164 2.318-8.04a5.802 5.802 0 0 0-7.817-2.46l-6.866 3.595 5.5 10.501 6.865-3.596zm-3.643-6.957c.25-.132.523-.198.809-.198.532 0 1.234.255 1.609.97.506.966.211 2.2-.63 2.642l-3.323 1.74-1.788-3.414 3.323-1.74z"/><path fill="#12263A" d="M19.526 28.731l5.5 10.501 6.866-3.596c2.865-1.5 3.983-4.863 2.476-7.739-1.089-2.08-3.316-3.355-5.516-3.355-.846 0-1.688.189-2.46.593l-6.866 3.596zm9.326-.189c.776 0 1.605.51 1.973 1.211.285.546.233 1.007.139 1.298-.14.432-.47.801-.928 1.042l-3.323 1.74-1.787-3.414 3.322-1.74c.173-.09.377-.137.604-.137z"/><path fill="#12263A" d="M5.837 22.398c.442 0 .89-.05 1.332-.148l9.074 17.327a6.01 6.01 0 0 0-.745.832C12.315 41.467 10 44.474 10 48v72c0 4.4 3.6 8 8 8h95c4.4 0 8-3.6 8-8V96.933c2.39-1.342 4-3.817 4-6.657V77.724c0-2.84-1.61-5.315-4-6.657V48a7.935 7.935 0 0 0-1.53-4.677c1.597-1.847 2.53-4.205 2.53-6.68 0-3.664-2.012-7.096-5.292-8.979-1.63-.887-3.469-1.318-5.622-1.318-.434 0-.434-.212-.434-.382 0-.133 0-.382.434-.382 2.065 0 4.065-.47 5.673-1.347 3.232-1.858 5.24-5.285 5.24-8.943 0-3.665-2.002-7.09-5.175-8.908C115.347 5.48 113.498 5 111.474 5c-1.93 0-3.789.486-5.184 1.34-3.234 1.859-5.243 5.286-5.243 8.945 0 1.693.536 3.457 1.596 5.31.098.193.159.434.174.5 0 0-.05.053-.207.131l-.127.068c-.228.136-.517-.023-.691-.305l-.11-.16c-.799-1.053-2.072-2.588-3.885-3.76l-.088-.054c-3.17-1.825-7.306-1.825-10.474-.002C84.005 18.869 82 22.299 82 25.964c0 3.659 2.005 7.088 5.237 8.953 3.166 1.814 7.35 1.791 10.416.026 1.65-.897 3.059-2.327 4.058-4.106.073-.12.275-.293.366-.293a.64.64 0 0 1 .256.085c.202.119.289.456.217.601-.985 1.732-1.505 3.603-1.505 5.41 0 1.163.228 2.29.61 3.36H82.59c.692-.598.889-1.616.413-2.443L66.997 9.733c-.274-.476-.636-.714-.997-.714-.362 0-.724.238-.998.714L48.997 37.557A1.943 1.943 0 0 0 49.41 40h-8.452a5.663 5.663 0 0 0-.36-1.89c2.988-4.066 3.472-9.52 1.023-14.196-1.262-2.41-3.275-4.362-5.706-5.621a13.4 13.4 0 0 0-1.417-7.98c-2.344-4.476-6.88-7.256-11.837-7.256-.14 0-.28.002-.418.006a5.925 5.925 0 0 0-4.894-2.54c-.978 0-1.955.24-2.826.696a5.87 5.87 0 0 0-2.935 3.543 5.91 5.91 0 0 0-.242 1.44 5.842 5.842 0 0 0-3.139-.914c-.95 0-1.905.236-2.76.685A6.044 6.044 0 0 0 2.51 9.397a5.943 5.943 0 0 0-.21 3.012 6.067 6.067 0 0 0-1.607 2.183 5.605 5.605 0 0 0 .193 4.825c.978 1.867 2.829 2.981 4.95 2.981zM121 77.724v12.552c0 2.054-1.834 3.724-4.088 3.724H95.176C88.462 94 83 89.514 83 84s5.462-10 12.176-10h21.736c2.254 0 4.088 1.67 4.088 3.724zm-18.923-51.18c-1.839 0-3.207 1.225-3.836 2.304-.647 1.151-1.512 2.044-2.54 2.605-1.94 1.114-4.524 1.112-6.47-.004C87.237 30.299 86 28.198 86 25.964c0-2.237 1.237-4.339 3.229-5.484 1.943-1.119 4.488-1.127 6.44-.024 1.23.807 2.167 1.927 2.779 2.727.86 1.323 2.345 2.14 3.902 2.14.739 0 1.46-.186 2.089-.54 1.66-.842 2.168-2.12 2.302-3.046.19-1.297-.256-2.415-.58-3.045-.75-1.313-1.114-2.427-1.114-3.407 0-2.231 1.24-4.33 3.282-5.504.811-.496 1.958-.78 3.146-.78 1.266 0 2.423.282 3.31.823 1.982 1.137 3.214 3.233 3.214 5.468 0 2.23-1.239 4.329-3.193 5.453-.991.54-2.312.837-3.72.837-2.527 0-4.434 1.884-4.434 4.382 0 2.846 2.284 4.382 4.434 4.382 1.468 0 2.682.272 3.67.81 2 1.149 3.244 3.251 3.244 5.486 0 1.53-.593 2.99-1.602 4.13A7.917 7.917 0 0 0 113 40h-6.935a6.166 6.166 0 0 1-1.02-3.36c0-1.115.34-2.302 1.026-3.514 1.068-2.097.3-4.764-1.752-5.969-.73-.407-1.484-.613-2.242-.613zM68 19.5l9.17 15.941L68 31.76V19.5zm0 16.57l7.778 3.123-1.49.807H68v-3.93zm-4-16.572V31.7l-9.083 3.587L64 19.498zm0 16.503V40h-6.287l-1.619-.876L64 36.001zM113 44c2.206 0 4 1.794 4 4v22.004c-.03 0-.058-.004-.088-.004H95.176C86.242 70 79 76.268 79 84s7.242 14 16.176 14h21.736c.03 0 .058-.004.088-.004V120c0 2.206-1.794 4-4 4H18c-2.206 0-4-1.794-4-4V48c0-2.206 1.794-4 4-4h95zM5.422 15.089l1.971-1.032-.99-1.89c-.492-.94-.088-2.134.9-2.651a1.94 1.94 0 0 1 .904-.228c.695 0 1.342.393 1.687 1.051l.99 1.89 5.679-2.975-.99-1.89c-.492-.94-.181-2.085.806-2.602.31-.162.644-.24.97-.24.709 0 1.383.366 1.721 1.011l.986 1.882a9.767 9.767 0 0 1 2.605-.358c3.45 0 6.607 1.892 8.294 5.112 1.434 2.738 1.386 5.923.083 8.677 2.87.458 5.606 2.185 7.04 4.923 2.105 4.02 1.205 8.741-2.3 11.667l.986 1.88c.114.219.176.45.197.684h-4.296l-.388-.74-1.414.74H20.98L8.965 17.058l-1.97 1.032a2.53 2.53 0 0 1-1.158.308c-.586 0-1.107-.262-1.408-.837-.494-.942.006-1.955.993-2.472z"/><path fill="#12263A" d="M95 78c-3.309 0-6 2.691-6 6s2.691 6 6 6 6-2.691 6-6-2.691-6-6-6zm0 8c-1.103 0-2-.897-2-2s.897-2 2-2 2 .897 2 2-.897 2-2 2z"/><path fill="#12263A" d="M24 79a2 2 0 0 0 2-2V55h38a2 2 0 0 0 0-4H24a2 2 0 0 0-2 2v24a2 2 0 0 0 2 2z"/><circle cx="24" cy="85" r="2"/><metadata><rdf:RDF xmlns:rdf="http://www.w3.org/1999/02/22-rdf-syntax-ns#" xmlns:rdfs="http://www.w3.org/2000/01/rdf-schema#" xmlns:dc="http://purl.org/dc/elements/1.1/"><rdf:Description about="https://iconscout.com/legal#licenses" dc:title="wallet,digital,money,crypto,ewallet,-" dc:description="wallet,digital,money,crypto,ewallet,-" dc:publisher="Iconscout" dc:date="2018-03-21" dc:format="image/svg+xml" dc:language="en"><dc:creator><rdf:Bag><rdf:li>Three Musketeers</rdf:li></rdf:Bag></dc:creator></rdf:Description></rdf:RDF></metadata></svg>