<svg xmlns="http://www.w3.org/2000/svg" viewBox="0 0 512 512"><title>Icon</title><polyline points="256 104.09 256 189.98 181.06 159.8 181.06 73.91" fill="#fff" stroke="#12263a" stroke-linecap="round" stroke-linejoin="round" stroke-width="10"/><polygon points="330.94 159.8 256 189.98 256 104.09 330.94 73.91 330.94 159.8" fill="#fff" stroke="#12263a" stroke-linecap="round" stroke-linejoin="round" stroke-width="10"/><polygon points="256 43.59 181.06 73.78 256 104.09 330.94 73.78 256 43.59" fill="#cf9b3a" stroke="#cf9b3a" stroke-linecap="round" stroke-linejoin="round" stroke-width="10"/><polyline points="256 189.98 256 238.37 139.27 273.88 139.27 322.02" fill="none" stroke="#12263a" stroke-linecap="round" stroke-linejoin="round" stroke-width="10"/><polyline points="256 189.98 256 238.37 372.73 273.88 372.73 322.02" fill="none" stroke="#12263a" stroke-linecap="round" stroke-linejoin="round" stroke-width="10"/><polygon points="139.27 468.41 64.33 438.23 64.33 352.34 139.27 382.52 139.27 468.41" fill="#fff" stroke="#12263a" stroke-linecap="round" stroke-linejoin="round" stroke-width="10"/><polygon points="214.21 438.23 139.27 468.41 139.27 382.52 214.21 352.34 214.21 438.23" fill="#fff" stroke="#12263a" stroke-linecap="round" stroke-linejoin="round" stroke-width="10"/><polygon points="139.27 322.02 64.33 352.2 139.27 382.52 214.21 352.2 139.27 322.02" fill="#cf9b3a" stroke="#cf9b3a" stroke-linecap="round" stroke-linejoin="round" stroke-width="10"/><polygon points="372.73 468.41 297.8 438.23 297.8 352.34 372.73 382.52 372.73 468.41" fill="#fff" stroke="#12263a" stroke-linecap="round" stroke-linejoin="round" stroke-width="10"/><polygon points="447.67 438.23 372.73 468.41 372.73 382.52 447.67 352.34 447.67 438.23" fill="#fff" stroke="#12263a" stroke-linecap="round" stroke-linejoin="round" stroke-width="10"/><polygon points="372.73 322.02 297.8 352.2 372.73 382.52 447.67 352.2 372.73 322.02" fill="#cf9b3a" stroke="#cf9b3a" stroke-linecap="round" stroke-linejoin="round" stroke-width="10"/></svg>