<svg xmlns="http://www.w3.org/2000/svg" viewBox="0 0 512 512"><title>Icon</title><path d="M369,472H109.36a18.24,18.24,0,0,1-18.24-18.24V58.24A18.24,18.24,0,0,1,109.36,40H284.9L387.23,142.33V453.76A18.24,18.24,0,0,1,369,472Z" fill="#fff" stroke="#12263a" stroke-linecap="round" stroke-linejoin="round" stroke-width="10"/><path d="M284.9,40v84.09a18.24,18.24,0,0,0,18.24,18.24h84.09Z" fill="#f3f5f6" stroke="#12263a" stroke-linecap="round" stroke-linejoin="round" stroke-width="10"/><line x1="142.44" y1="130.39" x2="220.18" y2="130.39" fill="none" stroke="#12263a" stroke-linecap="round" stroke-linejoin="round" stroke-width="10"/><line x1="142.44" y1="199.51" x2="345.9" y2="199.51" fill="none" stroke="#12263a" stroke-linecap="round" stroke-linejoin="round" stroke-width="10"/><line x1="142.44" y1="261.97" x2="345.9" y2="261.97" fill="none" stroke="#12263a" stroke-linecap="round" stroke-linejoin="round" stroke-width="10"/><line x1="142.44" y1="324.43" x2="345.9" y2="324.43" fill="none" stroke="#12263a" stroke-linecap="round" stroke-linejoin="round" stroke-width="10"/><line x1="142.44" y1="386.88" x2="220.18" y2="386.88" fill="none" stroke="#12263a" stroke-linecap="round" stroke-linejoin="round" stroke-width="10"/><circle cx="339.97" cy="323.09" r="86.5" transform="translate(-128.89 335.03) rotate(-45)" fill="#f3f5f6" stroke="#12263a" stroke-linecap="round" stroke-linejoin="round" stroke-width="10"/><circle cx="339.97" cy="323.09" r="68.39" fill="#cf9b3a"/><path d="M326,354.74,300.31,329a4.39,4.39,0,0,1,0-6.21l9.72-9.72a4.39,4.39,0,0,1,6.21,0L329.16,326l34.54-34.54a4.39,4.39,0,0,1,6.21,0l9.72,9.72a4.39,4.39,0,0,1,0,6.21l-47.37,47.37A4.39,4.39,0,0,1,326,354.74Z" fill="#fff"/><rect x="429.92" y="386.11" width="39.92" height="93.78" rx="19.96" ry="19.96" transform="translate(-174.41 444.93) rotate(-45)" fill="#f3f5f6" stroke="#12263a" stroke-linecap="round" stroke-linejoin="round" stroke-width="10"/><line x1="401.13" y1="384.26" x2="416.72" y2="399.84" fill="#f3f5f6" stroke="#12263a" stroke-linecap="round" stroke-linejoin="round" stroke-width="10"/></svg>