<svg class="service-icon" xmlns="http://www.w3.org/2000/svg" width="64" height="64" enable-background="new 0 0 64 64" viewBox="0 0 64 64"><rect width="515" height="845" x="-98" y="-261" fill="#3D1A1A" display="none"/><polygon fill="#12263A" points="21 7 21 6 15 6 15 7 16 7"/><polygon fill="#12263A" points="22 6 22 7 54 7 54 56 51 56 51 57 55 57 55 6"/><polygon fill="#12263A" points="49.586 18 42 18 42 10.414 41 8 41 19 52 19"/><path fill="#12263A" d="M13 9h8V8h-9v23.797c.326-.143.661-.267 1-.382V9zM41 8H22v1h18.586L51 19.414V58H13v-2.916c-.339-.115-.674-.239-1-.381V59h40V19L41 8z"/><rect width="16" height="1" x="24" y="17" fill="#12263A"/><rect width="18" height="1" x="18" y="29" fill="#12263A"/><rect width="28" height="1" x="18" y="26" fill="#12263A"/><rect width="28" height="1" x="18" y="23" fill="#12263A"/><path fill="#12263A" d="M46 45v-1H29.462c-.02.337-.052.67-.099 1H46zM26 52h10v-1h-9.204c-.251.317-.516.621-.796.912V52zM36 49v-1h-7.44c-.141.342-.299.674-.468 1H36z"/><g><path fill="#12263A" d="M21,4c-0.737,0-1.375,0.405-1.722,1H21c0.393,0,0.726,0.233,0.889,0.563
			c0.009,0.018,0.025,0.03,0.032,0.047C21.972,5.73,22,5.862,22,6v7.5c0,0.275-0.225,0.5-0.5,0.5S21,13.775,21,13.5V10h-1v3.5
			c0,0.827,0.673,1.5,1.5,1.5s1.5-0.673,1.5-1.5V6C23,4.897,22.104,4,21,4z"/></g><g><path fill="#12263A" d="M42.5,52.5c-1.103,0-2-0.897-2-2s0.897-2,2-2s2,0.897,2,2S43.603,52.5,42.5,52.5z M42.5,49.5
					c-0.551,0-1,0.449-1,1s0.449,1,1,1s1-0.449,1-1S43.051,49.5,42.5,49.5z"/></g><g><path fill="#12263A" d="M42.5,54.5c-2.206,0-4-1.794-4-4s1.794-4,4-4s4,1.794,4,4S44.706,54.5,42.5,54.5z M42.5,47.5
					c-1.654,0-3,1.346-3,3s1.346,3,3,3s3-1.346,3-3S44.154,47.5,42.5,47.5z"/></g><g><path fill="#12263A" d="M17,54.75c-6.341,0-11.5-5.159-11.5-11.5s5.159-11.5,11.5-11.5s11.5,5.159,11.5,11.5
						S23.341,54.75,17,54.75z M17,32.75c-5.79,0-10.5,4.71-10.5,10.5s4.71,10.5,10.5,10.5s10.5-4.71,10.5-10.5S22.79,32.75,17,32.75
						z"/><polygon fill="#12263A" points="22 38 16 47 13 42 10 42 16 50 24 38"/></g></svg>