<svg xmlns="http://www.w3.org/2000/svg" viewBox="0 0 512 512"><title>Icon</title><path d="M65,70.77H447a0,0,0,0,1,0,0V371.19a27.24,27.24,0,0,1-27.24,27.24H92.21A27.24,27.24,0,0,1,65,371.19V70.77A0,0,0,0,1,65,70.77Z" fill="#fff" stroke="#12263a" stroke-linecap="round" stroke-linejoin="round" stroke-width="10"/><rect x="37.03" y="43.59" width="437.93" height="40.94" rx="20.47" ry="20.47" fill="#cf9b3a"/><rect x="235.78" y="427.98" width="40.43" height="40.43" rx="20.22" ry="20.22" fill="#fff" stroke="#12263a" stroke-linecap="round" stroke-linejoin="round" stroke-width="10"/><line x1="256" y1="398.43" x2="256" y2="427.98" fill="#fff" stroke="#12263a" stroke-linecap="round" stroke-linejoin="round" stroke-width="10"/><polygon points="256 199.56 212.38 181.99 212.38 131.99 256 149.57 256 199.56" fill="#fff" stroke="#12263a" stroke-linecap="round" stroke-linejoin="round" stroke-width="10"/><polygon points="299.62 181.99 256 199.56 256 149.57 299.62 131.99 299.62 181.99" fill="#fff" stroke="#12263a" stroke-linecap="round" stroke-linejoin="round" stroke-width="10"/><polygon points="256 114.34 212.38 131.92 256 149.57 299.62 131.92 256 114.34" fill="#f3f5f6" stroke="#12263a" stroke-linecap="round" stroke-linejoin="round" stroke-width="10"/><polygon points="188.05 361.64 144.43 344.07 144.43 294.07 188.05 311.64 188.05 361.64" fill="#fff" stroke="#12263a" stroke-linecap="round" stroke-linejoin="round" stroke-width="10"/><polygon points="231.67 344.07 188.05 361.64 188.05 311.64 231.67 294.07 231.67 344.07" fill="#fff" stroke="#12263a" stroke-linecap="round" stroke-linejoin="round" stroke-width="10"/><polygon points="188.05 276.42 144.43 293.99 188.05 311.64 231.67 293.99 188.05 276.42" fill="#f3f5f6" stroke="#12263a" stroke-linecap="round" stroke-linejoin="round" stroke-width="10"/><polygon points="323.95 361.64 280.33 344.07 280.33 294.07 323.95 311.64 323.95 361.64" fill="#fff" stroke="#12263a" stroke-linecap="round" stroke-linejoin="round" stroke-width="10"/><polygon points="367.57 344.07 323.95 361.64 323.95 311.64 367.57 294.07 367.57 344.07" fill="#fff" stroke="#12263a" stroke-linecap="round" stroke-linejoin="round" stroke-width="10"/><polygon points="323.95 276.42 280.33 293.99 323.95 311.64 367.57 293.99 323.95 276.42" fill="#f3f5f6" stroke="#12263a" stroke-linecap="round" stroke-linejoin="round" stroke-width="10"/><polyline points="256 199.56 256 227.73 188.05 248.4 188.05 276.42" fill="#fff" stroke="#12263a" stroke-linecap="round" stroke-linejoin="round" stroke-width="10"/><polyline points="256 199.56 256 227.73 323.95 248.4 323.95 276.42" fill="#fff" stroke="#12263a" stroke-linecap="round" stroke-linejoin="round" stroke-width="10"/></svg>