<svg xmlns="http://www.w3.org/2000/svg" enable-background="new 0 0 124 124" viewBox="0 0 124 124"><path fill="#12263A" d="M21.052 35.62c-6.991 0-12.679-5.679-12.679-12.659s5.688-12.659 12.679-12.659 12.679 5.679 12.679 12.659S28.043 35.62 21.052 35.62zM21.052 14.302c-4.786 0-8.679 3.884-8.679 8.659s3.893 8.659 8.679 8.659 8.679-3.884 8.679-8.659S25.838 14.302 21.052 14.302zM31.465 124H10.64c-1.625 0-2.947-1.321-2.947-2.945V78.058c-1.138-1.162-2.469-2.27-3.464-3.557C1.502 70.961 0 66.552 0 62.086V48.914c0-4.644 3.284-9.896 8.072-10.926 2.553-.553 4.971-1.076 5.775.767l7.207 14.159 7.204-14.157c.791-1.826 3.112-1.424 5.834-.755 4.749 1.197 8.013 6.122 8.013 10.864v13.221c0 4.467-1.502 8.876-4.229 12.416-1.035 1.345-2.319 2.547-3.464 3.8v42.753C34.412 122.679 33.09 124 31.465 124zM23.052 120h7.359V64.605c0-1.104.896-2 2-2s2 .896 2 2v7.768c2.467-2.701 3.693-6.677 3.693-10.287V48.865c0-3.183-2.025-5.989-5.046-6.999-.59-.142-1.228-.269-1.721-.345L23.419 57.08c-.923 1.985-3.862 1.871-4.764-.062l-7.87-15.46c-.503.072-1.15.187-1.758.315C6.016 42.92 4 45.737 4 48.914v13.172c0 3.524 1.17 7.682 3.693 10.256v-7.736c0-1.104.896-2 2-2s2 .896 2 2V120h7.359V78.318c0-1.104.896-2 2-2s2 .896 2 2V120zM63.064 85.998c-6.429 0-11.659-5.252-11.659-11.709s5.23-11.709 11.659-11.709 11.659 5.253 11.659 11.709S69.493 85.998 63.064 85.998zM63.064 66.58c-4.223 0-7.659 3.458-7.659 7.709s3.436 7.709 7.659 7.709 7.659-3.458 7.659-7.709S67.287 66.58 63.064 66.58zM73.531 123.639H52.597c-2.362 0-4.284-1.922-4.284-4.284V93.731c0-2.362 1.922-4.284 4.284-4.284h20.935c2.362 0 4.284 1.922 4.284 4.284v25.624C77.815 121.717 75.894 123.639 73.531 123.639zM52.597 93.447c-.157 0-.284.127-.284.284v25.624c0 .157.127.284.284.284h20.935c.157 0 .284-.127.284-.284V93.731c0-.157-.127-.284-.284-.284H52.597zM109.249 85.998c-6.429 0-11.659-5.252-11.659-11.709s5.23-11.709 11.659-11.709 11.659 5.253 11.659 11.709S115.677 85.998 109.249 85.998zM109.249 66.58c-4.223 0-7.659 3.458-7.659 7.709s3.436 7.709 7.659 7.709 7.659-3.458 7.659-7.709S113.472 66.58 109.249 66.58zM119.716 123.639H98.781c-2.362 0-4.284-1.922-4.284-4.284V93.731c0-2.362 1.922-4.284 4.284-4.284h20.935c2.362 0 4.284 1.922 4.284 4.284v25.624C124 121.717 122.078 123.639 119.716 123.639zM98.781 93.447c-.157 0-.284.127-.284.284v25.624c0 .157.127.284.284.284h20.935c.157 0 .284-.127.284-.284V93.731c0-.157-.127-.284-.284-.284H98.781zM112.203 50.954h-3.389V4h3.389c1.104 0 2-.896 2-2s-.896-2-2-2h-55.81c-1.104 0-2 .896-2 2s.896 2 2 2h48.421v46.954H63.782v-35.7c0-1.104-.896-2-2-2s-2 .896-2 2v35.7h-3.389c-1.104 0-2 .896-2 2s.896 2 2 2h55.81c1.104 0 2-.896 2-2S113.308 50.954 112.203 50.954z"/><path fill="#12263A" d="M93.997 29.477H74.6c-1.104 0-2-.896-2-2s.896-2 2-2h19.397c1.104 0 2 .896 2 2S95.101 29.477 93.997 29.477zM87.64 41.554H74.6c-1.104 0-2-.896-2-2s.896-2 2-2H87.64c1.104 0 2 .896 2 2S88.745 41.554 87.64 41.554zM93.997 17.4H74.6c-1.104 0-2-.896-2-2s.896-2 2-2h19.397c1.104 0 2 .896 2 2S95.101 17.4 93.997 17.4z"/><circle cx="61.782" cy="8.127" r="2"/><circle cx="93.997" cy="39.554" r="2"/></svg>