<svg xmlns="http://www.w3.org/2000/svg" width="40" height="40" viewBox="0 0 40 40"><g fill="none" fill-rule="evenodd"><path fill="#000000" d="M0 40h40V0H0z"/><path fill="#FFF" d="M9.545 13.378a1.041 1.041 0 0 0-.338-.878l-2.51-3.023v-.451h7.791l6.022 13.206 5.294-13.206h7.427v.451l-2.145 2.057a.627.627 0 0 0-.239.602v15.113a.627.627 0 0 0 .239.602l2.095 2.056v.452H22.643v-.452l2.17-2.106c.213-.214.213-.276.213-.602V14.983l-6.034 15.326h-.815L11.15 14.983v10.272c-.058.431.085.866.39 1.178l2.822 3.424v.452H6.359v-.452l2.823-3.424a1.36 1.36 0 0 0 .363-1.178V13.378z"/></g></svg>